<mxfile host="app.diagrams.net" agent="Mozilla/5.0 (Windows NT 10.0; Win64; x64) AppleWebKit/537.36 (KHTML, like Gecko) Chrome/135.0.0.0 Safari/537.36" version="26.2.12">
  <diagram name="Page-1" id="oHyN8oJLdDw8K9mrMbPe">
    <mxGraphModel dx="1667" dy="777" grid="1" gridSize="10" guides="1" tooltips="1" connect="1" arrows="1" fold="1" page="1" pageScale="1" pageWidth="850" pageHeight="1100" math="0" shadow="0">
      <root>
        <mxCell id="0" />
        <mxCell id="1" parent="0" />
        <mxCell id="zbvVhCG34NW1_M71wBBT-1" value="SDN Data" style="ellipse;shape=cloud;whiteSpace=wrap;html=1;" vertex="1" parent="1">
          <mxGeometry x="40" y="60" width="120" height="80" as="geometry" />
        </mxCell>
        <mxCell id="zbvVhCG34NW1_M71wBBT-2" value="" style="endArrow=classic;html=1;rounded=0;exitX=0.875;exitY=0.5;exitDx=0;exitDy=0;exitPerimeter=0;" edge="1" parent="1" source="zbvVhCG34NW1_M71wBBT-1" target="zbvVhCG34NW1_M71wBBT-3">
          <mxGeometry width="50" height="50" relative="1" as="geometry">
            <mxPoint x="400" y="430" as="sourcePoint" />
            <mxPoint x="250" y="100" as="targetPoint" />
          </mxGeometry>
        </mxCell>
        <mxCell id="zbvVhCG34NW1_M71wBBT-3" value="Stored in S3 Bucket" style="rounded=0;whiteSpace=wrap;html=1;" vertex="1" parent="1">
          <mxGeometry x="250" y="70" width="120" height="60" as="geometry" />
        </mxCell>
        <mxCell id="zbvVhCG34NW1_M71wBBT-4" value="1" style="text;html=1;align=center;verticalAlign=middle;resizable=0;points=[];autosize=1;strokeColor=none;fillColor=none;" vertex="1" parent="1">
          <mxGeometry x="175" y="78" width="30" height="30" as="geometry" />
        </mxCell>
        <mxCell id="zbvVhCG34NW1_M71wBBT-7" style="edgeStyle=orthogonalEdgeStyle;rounded=0;orthogonalLoop=1;jettySize=auto;html=1;entryX=0;entryY=0.5;entryDx=0;entryDy=0;" edge="1" parent="1" source="zbvVhCG34NW1_M71wBBT-5" target="zbvVhCG34NW1_M71wBBT-6">
          <mxGeometry relative="1" as="geometry" />
        </mxCell>
        <mxCell id="zbvVhCG34NW1_M71wBBT-5" value="Input from Payment Galaxy" style="rounded=0;whiteSpace=wrap;html=1;" vertex="1" parent="1">
          <mxGeometry x="40" y="230" width="120" height="60" as="geometry" />
        </mxCell>
        <mxCell id="zbvVhCG34NW1_M71wBBT-10" style="edgeStyle=orthogonalEdgeStyle;rounded=0;orthogonalLoop=1;jettySize=auto;html=1;exitX=1;exitY=0.5;exitDx=0;exitDy=0;" edge="1" parent="1" source="zbvVhCG34NW1_M71wBBT-6" target="zbvVhCG34NW1_M71wBBT-9">
          <mxGeometry relative="1" as="geometry" />
        </mxCell>
        <mxCell id="zbvVhCG34NW1_M71wBBT-14" style="edgeStyle=orthogonalEdgeStyle;rounded=0;orthogonalLoop=1;jettySize=auto;html=1;" edge="1" parent="1" source="zbvVhCG34NW1_M71wBBT-6">
          <mxGeometry relative="1" as="geometry">
            <mxPoint x="300" y="350" as="targetPoint" />
          </mxGeometry>
        </mxCell>
        <mxCell id="zbvVhCG34NW1_M71wBBT-6" value="AI Compliance Scanner Model" style="rounded=0;whiteSpace=wrap;html=1;" vertex="1" parent="1">
          <mxGeometry x="240" y="230" width="120" height="60" as="geometry" />
        </mxCell>
        <mxCell id="zbvVhCG34NW1_M71wBBT-8" style="edgeStyle=orthogonalEdgeStyle;rounded=0;orthogonalLoop=1;jettySize=auto;html=1;entryX=0.583;entryY=0.083;entryDx=0;entryDy=0;entryPerimeter=0;" edge="1" parent="1" source="zbvVhCG34NW1_M71wBBT-3" target="zbvVhCG34NW1_M71wBBT-6">
          <mxGeometry relative="1" as="geometry" />
        </mxCell>
        <mxCell id="zbvVhCG34NW1_M71wBBT-9" value="Output to UI" style="rounded=0;whiteSpace=wrap;html=1;" vertex="1" parent="1">
          <mxGeometry x="450" y="230" width="120" height="60" as="geometry" />
        </mxCell>
        <mxCell id="zbvVhCG34NW1_M71wBBT-11" value="2" style="text;html=1;align=center;verticalAlign=middle;resizable=0;points=[];autosize=1;strokeColor=none;fillColor=none;" vertex="1" parent="1">
          <mxGeometry x="190" y="230" width="30" height="30" as="geometry" />
        </mxCell>
        <mxCell id="zbvVhCG34NW1_M71wBBT-12" value="3" style="text;html=1;align=center;verticalAlign=middle;resizable=0;points=[];autosize=1;strokeColor=none;fillColor=none;" vertex="1" parent="1">
          <mxGeometry x="310" y="168" width="30" height="30" as="geometry" />
        </mxCell>
        <mxCell id="zbvVhCG34NW1_M71wBBT-13" value="5" style="text;html=1;align=center;verticalAlign=middle;resizable=0;points=[];autosize=1;strokeColor=none;fillColor=none;" vertex="1" parent="1">
          <mxGeometry x="395" y="230" width="30" height="30" as="geometry" />
        </mxCell>
        <mxCell id="zbvVhCG34NW1_M71wBBT-16" value="" style="edgeStyle=orthogonalEdgeStyle;rounded=0;orthogonalLoop=1;jettySize=auto;html=1;" edge="1" parent="1" source="zbvVhCG34NW1_M71wBBT-15" target="zbvVhCG34NW1_M71wBBT-6">
          <mxGeometry relative="1" as="geometry" />
        </mxCell>
        <mxCell id="zbvVhCG34NW1_M71wBBT-15" value="" style="shape=cylinder3;whiteSpace=wrap;html=1;boundedLbl=1;backgroundOutline=1;size=15;" vertex="1" parent="1">
          <mxGeometry x="270" y="350" width="60" height="70" as="geometry" />
        </mxCell>
        <mxCell id="zbvVhCG34NW1_M71wBBT-17" value="4" style="text;html=1;align=center;verticalAlign=middle;resizable=0;points=[];autosize=1;strokeColor=none;fillColor=none;" vertex="1" parent="1">
          <mxGeometry x="295" y="298" width="30" height="30" as="geometry" />
        </mxCell>
        <mxCell id="zbvVhCG34NW1_M71wBBT-18" value="MySQL DB" style="text;html=1;align=center;verticalAlign=middle;resizable=0;points=[];autosize=1;strokeColor=none;fillColor=none;" vertex="1" parent="1">
          <mxGeometry x="340" y="380" width="80" height="30" as="geometry" />
        </mxCell>
      </root>
    </mxGraphModel>
  </diagram>
</mxfile>
